<?xml version="1.0" encoding="utf-8"?>
<!-- Generator: Adobe Illustrator 21.1.0, SVG Export Plug-In . SVG Version: 6.00 Build 0)  -->
<svg version="1.1" id="Layer_1" xmlns="http://www.w3.org/2000/svg" xmlns:xlink="http://www.w3.org/1999/xlink" x="0px" y="0px"
	 width="90px" height="90px" viewBox="0 0 90 90" style="enable-background:new 0 0 90 90;" xml:space="preserve">
<rect y="84" width="90" height="6"/>
<polygon points="49,51 49,33 21.1,33 20,33 20,51 20,81 70,81 70,51 "/>
<polygon points="64,4 64,0 46,0 46,4 0,4 0,10 46,10 46,14 52,24 52,34 58,24 64,14 64,10 90,10 90,4 "/>
<polygon points="58,48 58,38 52,48 "/>
<polygon points="52,37.9 52,44.1 58,34.1 58,27.9 "/>
</svg>
